<svg width="497" height="153" viewBox="0 0 497 153" fill="none" xmlns="http://www.w3.org/2000/svg">
<path d="M126.014 100.049V115.976C126.014 122.509 129.382 124.96 135.202 124.96H167.871V134.965H132.038C122.237 134.965 115.6 130.472 115.6 120.161V70.6463C115.6 60.3357 122.237 55.333 132.038 55.333H167.871V65.4397H135.202C129.382 65.4397 126.014 67.7877 126.014 74.3223V90.0436H167.157V100.049H126.014Z" fill="#2C2E35"/>
<rect x="178.586" y="75.752" width="16" height="59.2132" rx="3" fill="#2C2E35"/>
<path d="M234.632 116.384C234.632 112.709 232.489 109.033 226.261 109.033H214.009C203.801 109.033 197.369 103.826 197.369 92.8009V90.3503C197.369 79.937 204.312 75.7517 214.009 75.7517H243.514V84.837H215.337C208.905 84.837 206.965 88.6143 206.965 92.3916V92.6983C207.068 96.3743 209.109 100.049 215.337 100.049H227.588C237.797 100.049 244.229 105.256 244.229 116.281V120.365C244.229 130.778 237.286 134.965 227.588 134.965H197.88V125.878H226.261C232.693 125.878 234.632 122.101 234.632 118.324V116.384Z" fill="#2C2E35"/>
<path d="M285.058 120.161V55.333H295.472V115.976C295.472 122.509 298.84 124.96 304.659 124.96H338.043V134.965H301.495C291.695 134.965 285.058 130.472 285.058 120.161Z" fill="#2C2E35"/>
<rect x="344.166" y="75.752" width="16" height="59.2132" rx="3" fill="#2C2E35"/>
<path d="M400.211 116.384C400.211 112.709 398.068 109.033 391.84 109.033H379.588C369.38 109.033 362.948 103.826 362.948 92.8009V90.3503C362.948 79.937 369.891 75.7517 379.588 75.7517H409.093V84.837H380.916C374.484 84.837 372.544 88.6143 372.544 92.3916V92.6983C372.647 96.3743 374.688 100.049 380.916 100.049H393.167C403.376 100.049 409.808 105.256 409.808 116.281V120.365C409.808 130.778 402.865 134.965 393.167 134.965H363.459V125.878H391.84C398.272 125.878 400.211 122.101 400.211 118.324V116.384Z" fill="#2C2E35"/>
<path d="M427.567 106.89L460.849 93.9236V92.1889C460.849 86.4716 458.093 84.8383 450.333 84.8383H437.776C430.427 84.8383 427.567 87.7996 427.567 94.1289V106.89ZM469.527 134.965H434.509C424.812 134.965 417.971 130.269 417.971 119.753V90.453C417.971 80.0396 424.913 75.7517 434.612 75.7517H454.009C463.707 75.7517 470.445 80.2436 470.445 90.657V99.8449L427.669 116.18C427.669 124.144 430.427 125.981 438.389 125.981H469.527V134.965Z" fill="#2C2E35"/>
<rect x="480.649" y="55.332" width="16" height="79.6318" rx="3" fill="#2C2E35"/>
<circle cx="183.954" cy="63.0605" r="8" fill="#0090A0"/>
<circle cx="349.469" cy="63.0605" r="8" fill="#D8248E"/>
<path d="M81.9949 74.2702L81.9243 74.2729C82.0323 74.3689 82.1803 74.4702 82.1123 74.3449C82.0923 74.3315 82.0656 74.3195 82.047 74.3049L81.9949 74.2702ZM19.9124 77.2555C20.1004 77.3182 20.3524 77.3649 20.4698 77.3048L20.3004 77.2675C20.1898 77.2662 20.0524 77.2608 19.9124 77.2555ZM83.1696 74.9982C83.0683 74.8755 83.0976 74.9075 83.1696 74.9982V74.9982ZM81.8936 74.2009C81.8349 74.1662 81.8323 74.1742 81.8523 74.1995L81.8936 74.2009ZM19.3564 77.2328L19.2911 77.2302L19.1471 77.2289L19.1338 77.2395C19.2031 77.2395 19.2773 77.2373 19.3564 77.2328ZM18.6298 77.6889C18.5911 77.7928 18.5498 77.8902 18.4844 77.9342C18.5391 77.8969 18.5778 77.8542 18.6204 77.8129L18.6298 77.6889ZM18.5284 77.4835C18.5453 77.4942 18.5742 77.4937 18.6151 77.4822L18.6444 77.4635C18.5844 77.4822 18.5391 77.4915 18.5284 77.4835ZM18.7498 77.3848C18.8724 77.2649 18.9578 77.1862 18.9444 77.2035C18.9604 76.9982 18.8551 76.9662 18.7498 77.3848ZM18.9418 77.2302L18.9444 77.2062C18.9231 77.2302 18.8751 77.2795 18.7871 77.3689L18.7791 77.3809L18.9351 77.2808C18.9378 77.2631 18.94 77.2453 18.9418 77.2302C18.9471 77.232 18.9658 77.2351 18.9978 77.2369L19.0111 77.2275C18.9698 77.2275 18.9511 77.2289 18.9418 77.2302ZM19.1031 77.2275H19.0458L19.0378 77.2369L19.0858 77.2382L19.1031 77.2275ZM85.1869 93.4261C81.323 99.2208 77.2816 104.89 73.8976 110.989C71.9696 114.462 70.0163 118.539 68.6483 121.842C67.7003 124.13 66.6963 126.353 65.799 128.661C65.2137 130.167 64.743 131.737 63.9043 133.123C63.2163 134.261 62.5683 135.413 61.939 136.582C60.6817 138.919 56.6937 137.913 56.8483 135.205C56.935 133.702 56.9737 132.187 57.099 130.689C57.2257 129.165 57.6963 127.709 58.1163 126.245C58.835 123.746 59.575 121.231 60.5417 118.815C62.251 114.551 64.1537 110.369 66.3377 106.327C69.3883 100.686 72.9896 95.3915 76.4963 90.0315C78.2723 87.3168 80.0523 84.5835 81.6003 81.7302C81.8554 81.2591 82.1007 80.784 82.3363 80.3048C82.4016 80.1688 82.6243 79.6768 82.6763 79.5768C82.9643 78.8595 83.215 78.1208 83.3976 77.3715C83.4443 77.1782 83.4816 76.9848 83.5203 76.7915C83.5243 76.4755 83.4963 76.1155 83.5363 75.8089C83.5221 75.7271 83.5034 75.6475 83.4803 75.5702C83.4643 75.5169 83.4478 75.4649 83.4309 75.4142L83.4043 75.3675C83.4189 75.3502 83.3763 75.2782 83.3203 75.1969C83.2376 75.1129 83.1069 74.9755 83.0896 74.9715C83.0829 74.9689 82.9803 74.8822 82.8949 74.8062C82.7976 74.7395 82.6923 74.6662 82.6776 74.6582C82.4989 74.5622 82.2869 74.4595 82.1123 74.3449C82.1056 74.3315 82.1056 74.3262 82.0923 74.3049C82.0843 74.2929 82.0576 74.2809 82.0269 74.2689L81.9949 74.2702L81.9683 74.2515L81.8789 74.2302L81.9243 74.2729C81.6043 74.2849 81.2696 74.2702 80.9563 74.2809H80.8923C80.8483 74.2969 80.8096 74.3102 80.7323 74.3315C79.9283 74.5582 79.1176 74.7302 78.323 74.9982C77.8336 75.1622 77.3523 75.3475 76.871 75.5329L76.8163 75.5542L76.375 75.7515C75.5679 76.1204 74.7732 76.5146 73.991 76.9342C72.5483 77.7075 71.143 78.5568 69.8176 79.5195C69.4665 79.7773 69.1181 80.0391 68.7723 80.3048C68.699 80.3635 68.2177 80.7355 68.0963 80.8328C67.3319 81.4408 66.5781 82.0608 65.835 82.6928C64.2003 84.0862 62.6177 85.5408 61.1017 87.0608C57.651 90.5222 54.959 93.8195 52.431 97.8381C50.2737 101.265 45.9377 100.894 43.711 97.8381C43.3982 97.4097 43.0826 96.9844 42.7644 96.5621L42.7164 96.4968C42.5697 96.3101 42.4226 96.1235 42.275 95.9368C41.5293 94.9972 40.7675 94.071 39.9897 93.1581C38.2471 91.1101 36.4017 89.1515 34.4844 87.2675C32.4071 85.2262 30.2391 83.2875 28.0057 81.4208C27.9457 81.3715 27.9244 81.3515 27.8871 81.3195L27.8364 81.2835C27.6266 81.128 27.4164 80.9728 27.2058 80.8182C26.6911 80.444 26.1666 80.0831 25.6324 79.7355C24.6338 79.0848 23.6004 78.4822 22.5244 77.9675C22.44 77.9257 22.3662 77.8848 22.3031 77.8448C22.1871 77.8062 22.0671 77.7729 21.9964 77.7488C21.5538 77.6075 21.1191 77.4595 20.6684 77.3475C20.6027 77.3324 20.5364 77.3182 20.4698 77.3048C20.4924 77.2929 20.5191 77.2849 20.5284 77.2635C20.5258 77.2702 20.4311 77.2702 20.3004 77.2675C20.1813 77.2453 20.0631 77.22 19.9458 77.1915C19.8591 77.1689 19.8044 77.1595 19.7644 77.1542C19.7738 77.1475 19.7924 77.1435 19.7964 77.1355C19.7924 77.1422 19.7698 77.1475 19.7591 77.1528C19.7004 77.1449 19.6964 77.1542 19.7178 77.1715C19.6591 77.1902 19.5849 77.2071 19.4951 77.2222C19.5911 77.2133 19.6675 77.1977 19.7244 77.1755C19.7573 77.1977 19.82 77.2244 19.9124 77.2555L19.4138 77.2355C19.3018 77.2528 19.1951 77.2689 19.1538 77.2808C19.1284 77.2875 19.0591 77.3142 18.9791 77.3435L18.9004 77.3942L18.9098 77.3702L18.8871 77.3782L18.7951 77.4542C18.7693 77.4693 18.7444 77.4826 18.7204 77.4942L18.7164 77.5195L18.6884 77.5435L18.6711 77.5875L18.6618 77.7755C18.6671 77.772 18.6715 77.768 18.6751 77.7635L18.6591 77.8648C18.6547 78.0853 18.6578 78.3048 18.6684 78.5235C18.6458 78.4742 18.6298 78.4275 18.6018 78.3742C18.6431 78.4528 18.6578 78.5675 18.6751 78.6782C18.6844 78.8195 18.7018 78.9608 18.7071 79.1022C18.7164 79.3288 18.7618 79.4128 18.7991 79.4022C19.0991 80.7582 19.5778 82.0435 20.0524 83.3462L20.2218 83.7288C20.4013 84.1244 20.5853 84.5173 20.7738 84.9075C21.1515 85.6862 21.5444 86.4568 21.9524 87.2195C23.9684 90.9942 26.2738 94.6128 28.6391 98.1755C34.1097 106.414 39.9897 114.37 45.5017 122.579C50.463 129.969 55.4043 137.642 58.3377 146.103C59.3323 148.973 57.1963 151.918 54.5484 152.775C51.6364 153.718 48.8004 151.662 47.8764 148.987C47.6861 148.438 47.4861 147.893 47.2764 147.353C47.243 147.266 47.207 147.157 47.1684 147.043L47.1257 146.962C46.631 145.886 46.147 144.807 45.6164 143.749C44.4484 141.423 43.1657 139.158 41.827 136.927C38.8977 132.043 35.7004 127.322 32.4604 122.641C26.6858 114.298 20.6218 106.121 15.3578 97.4395C11.5098 91.0968 6.69513 83.1062 8.1538 75.3609C8.9298 71.2422 12.2045 68.0795 16.1591 66.9129C21.1151 65.4516 26.4284 67.5049 30.6031 70.1275C37.3697 74.3769 43.1017 80.3875 48.0657 86.7835C50.375 83.8715 52.8577 81.1008 55.583 78.5582C59.091 75.2875 62.9043 72.0235 67.0617 69.6022C70.6203 67.5302 74.6603 65.6236 78.759 64.9875C83.7523 64.2142 88.7523 65.8996 91.4549 70.4502C96.0109 78.1182 89.3629 87.1662 85.1869 93.4261ZM18.7164 77.5195L18.6751 77.7635C18.7898 77.6408 18.8591 77.5129 18.9004 77.3942C18.8618 77.4182 18.8338 77.4329 18.7951 77.4542L18.7164 77.5195ZM18.9418 77.2302C18.9373 77.2302 18.9373 77.232 18.9418 77.2328V77.2302ZM19.7591 77.1542C19.7493 77.1604 19.7355 77.1653 19.7178 77.1715L19.7244 77.1755C19.7413 77.1684 19.7547 77.1613 19.7644 77.1542H19.7591ZM18.6698 78.6142L18.6684 78.5235C18.9004 79.0368 18.8658 79.3835 18.7991 79.4035C18.7858 79.3409 18.7658 79.2782 18.7538 79.2155C18.7218 79.0648 18.7044 78.8662 18.6751 78.6782L18.6698 78.6142Z" fill="#D8248E"/>
<path d="M40.7849 36.4386L40.7956 36.496C39.3343 36.4786 37.6929 34.744 36.8316 33.3733C36.2916 32.548 35.8609 31.6653 35.5263 30.7453C36.7689 31.3813 37.9396 32.2053 38.9849 33.2747C39.7636 34.1066 40.6303 35.44 40.7849 36.4386ZM41.1636 36.484C41.1356 36.4906 41.1076 36.4826 41.0796 36.4866C41.1249 36.4733 41.1636 36.468 41.1636 36.484ZM76.9888 34.596C79.4795 29.2533 79.9262 23.0467 78.4862 17.132C75.1115 3.89606 59.6022 -2.54659 47.0996 0.932068C38.6649 2.67739 31.1409 9.48404 29.7943 18.2054C29.521 19.6054 29.401 21.0947 29.4116 22.6133C22.2303 21.76 14.8343 24.1787 9.03434 28.3587C-1.9523 36.8093 -3.2923 54.6653 7.07968 64.2199C12.365 68.9146 19.3943 61.4172 14.385 56.4466C12.5317 54.7159 11.1597 52.5066 10.4783 49.9306C8.93034 44.1586 10.685 36.7346 15.8903 33.2893C19.9703 30.4347 25.3783 28.7213 30.377 29.2467C31.8476 34.324 35.0076 38.8386 39.9809 40.5893C42.6929 41.4026 45.4196 39.4066 45.4729 36.5626C45.4862 30.248 40.2796 25.972 34.7583 23.9093C35.2356 19.5627 37.4343 15.3774 40.9863 13.024C48.0476 8.39737 58.6955 8.57204 65.6969 13.3294C72.0328 17.6227 73.4902 26.596 71.6235 33.924C69.3782 33.8813 67.1275 34.132 64.9395 34.7386C48.4916 38.628 39.2609 56.0039 49.7382 70.4652C51.5756 73.0372 55.5849 70.9466 54.5142 67.9426C50.6462 56.8786 55.4956 47.0106 67.1422 44.332C76.6115 41.9173 88.2648 49.4733 87.8355 59.5493C87.7021 65.2652 95.9701 66.1106 96.9661 60.4372C98.6141 47.7786 88.6261 37.3066 76.9888 34.596Z" fill="#0090A0"/>
</svg>
