<svg width="130" height="44" viewBox="0 0 130 44" fill="none" xmlns="http://www.w3.org/2000/svg">
<path d="M33.1894 6.60986C32.266 6.60986 31.473 6.2972 30.8314 5.68165C30.1881 5.06447 29.8624 4.30887 29.8624 3.43277C29.8624 2.48664 30.1865 1.67079 30.8281 1.00475C31.4681 0.337089 32.2644 0 33.1894 0C34.1127 0 34.9009 0.330575 35.5327 0.986839C36.1596 1.63985 36.4788 2.45081 36.4788 3.39531C36.4788 4.29421 36.1531 5.06447 35.5099 5.68165C34.8683 6.2972 34.0866 6.60986 33.1894 6.60986ZM90.7289 6.60986C89.8055 6.60986 89.0125 6.2972 88.3725 5.68165C87.7277 5.06447 87.402 4.30724 87.402 3.43277C87.402 2.48827 87.726 1.67079 88.3676 1.00475C89.0092 0.337089 89.8039 0 90.7289 0C91.6538 0 92.442 0.330575 93.0722 0.986839C93.7008 1.63985 94.02 2.45081 94.02 3.39531C94.02 4.29421 93.6943 5.06447 93.0494 5.68165C92.4078 6.2972 91.6278 6.60986 90.7289 6.60986ZM0.255666 28.4783C0.159588 28.4783 0.0814223 28.4017 0.0814223 28.3057V7.27916C0.0814223 5.40644 0.656264 3.9327 1.78966 2.90026C2.34822 2.41987 2.92143 2.09744 3.49302 1.94599C4.06297 1.79455 4.97165 1.72127 6.27115 1.72127H17.5286C17.6247 1.72127 17.7028 1.79943 17.7028 1.89388V7.60647C17.7028 7.70255 17.6247 7.78072 17.5286 7.78072H7.92076C6.71408 7.78072 6.15064 8.24971 6.15064 9.25609V12.013H17.5302C17.6263 12.013 17.7028 12.0912 17.7028 12.1873V17.9015C17.7028 17.9976 17.6263 18.0741 17.5302 18.0741H6.15064V28.304C6.15064 28.4001 6.0741 28.4783 5.97803 28.4783H0.255666ZM19.8768 28.4783C19.7807 28.4783 19.7042 28.4017 19.7042 28.3057V13.6154C19.7042 10.098 21.489 8.31485 25.0113 8.31485H28.4587C28.5548 8.31485 28.6313 8.39138 28.6313 8.48746V13.5422C28.6313 13.6382 28.5548 13.7164 28.4587 13.7164H26.5502C26.1235 13.7164 25.7653 13.806 25.4901 13.9818C25.2344 14.1447 25.1106 14.3368 25.1106 14.5681V28.3057C25.1106 28.4017 25.0325 28.4783 24.938 28.4783H19.8768ZM30.6946 28.4783C30.6001 28.4783 30.522 28.4017 30.522 28.3057V8.48746C30.522 8.39138 30.6001 8.31485 30.6946 8.31485H35.6825C35.7786 8.31485 35.8551 8.39138 35.8551 8.48746V28.3057C35.8551 28.4017 35.7786 28.4783 35.6825 28.4783H30.6946ZM45.3278 13.9362C44.9272 13.9362 44.5803 14.0454 44.2954 14.2636C44.0202 14.472 43.8866 14.7244 43.8866 15.0338L43.8769 16.8186L49.8728 14.6267C49.8419 14.4639 49.7458 14.3189 49.5813 14.1887C49.3663 14.0193 49.1253 13.9346 48.8452 13.9346L45.3278 13.9362ZM44.1293 28.4783C43.0463 28.4783 42.2533 28.392 41.7045 28.2128C41.159 28.037 40.589 27.6917 40.0093 27.1902C39.4459 26.63 39.0615 26.0731 38.858 25.5259C38.6561 24.9853 38.5535 24.1824 38.5535 23.1402V13.1399C38.5535 11.6564 39.0143 10.4677 39.9214 9.60783C40.8268 8.74964 42.0839 8.31485 43.6554 8.31485H50.4102C51.9605 8.31485 53.1802 8.75778 54.0384 9.63063C54.8949 10.5019 55.3297 11.733 55.3297 13.2865V17.242C55.3297 17.3136 55.2841 17.3788 55.2174 17.4048L43.8866 21.6844V21.8945C43.8866 22.2234 43.9762 22.5165 44.1521 22.7657C44.3165 23.0002 44.4989 23.1142 44.7139 23.1142H55.1555C55.2515 23.1142 55.3297 23.1907 55.3297 23.2868V28.3057C55.3297 28.4017 55.2515 28.4783 55.1555 28.4783H44.1293ZM63.0681 22.7738C63.3498 23.0018 63.6527 23.1142 63.9947 23.1142H68.1032C68.4029 23.1142 68.652 23.0197 68.867 22.8292C69.0738 22.6419 69.1764 22.4074 69.1764 22.1143V14.9345C69.1764 14.1023 68.7644 13.7164 67.8818 13.7164H64.068C63.7244 13.7164 63.4475 13.8353 63.2244 14.0795C62.9948 14.332 62.8841 14.6218 62.8841 14.9703V22.4042L63.0681 22.7738ZM62.2718 28.4783C60.8583 28.4783 59.694 28.0044 58.8081 27.0697C57.9255 26.1366 57.476 24.8778 57.476 23.3242V13.4331C57.476 11.9544 57.9238 10.7184 58.8064 9.76254C59.6923 8.80175 60.8339 8.31485 62.1969 8.31485H69.1748V1.0878C69.1748 0.991724 69.2529 0.915187 69.349 0.915187H74.3744C74.4688 0.915187 74.547 0.991724 74.547 1.0878V22.9937C74.547 24.0066 74.4705 24.7817 74.319 25.2963C74.166 25.819 73.8321 26.3548 73.3257 26.8873C72.3421 27.9425 71.0165 28.4783 69.3848 28.4783H62.2718ZM77.418 28.4783C77.3219 28.4783 77.2437 28.4017 77.2437 28.3057V13.6154C77.2437 10.098 79.0301 8.31485 82.5525 8.31485H85.9982C86.0943 8.31485 86.1709 8.39138 86.1709 8.48746V13.5422C86.1709 13.6382 86.0943 13.7164 85.9982 13.7164H84.0913C83.663 13.7164 83.3064 13.806 83.0296 13.9818C82.7755 14.1447 82.6502 14.3368 82.6502 14.5681V28.3057C82.6502 28.4017 82.5736 28.4783 82.4775 28.4783H77.418ZM88.2357 28.4783C88.1396 28.4783 88.0631 28.4017 88.0631 28.3057V8.48746C88.0631 8.39138 88.1396 8.31485 88.2341 8.31485H93.222C93.3181 8.31485 93.3963 8.39138 93.3963 8.48746V28.3057C93.3963 28.4017 93.3181 28.4783 93.222 28.4783H88.2357ZM101.915 28.4783C98.2946 28.4783 96.4594 26.7065 96.4594 23.2135V13.1758C96.4594 11.6255 96.8453 10.4155 97.6058 9.58015C98.3695 8.73987 99.4622 8.31485 100.851 8.31485H109.982C110.078 8.31485 110.156 8.39138 110.156 8.48746V13.5422C110.156 13.6382 110.078 13.7164 109.982 13.7164H102.406C102.307 13.7376 102.188 13.8239 102.063 13.9672C101.936 14.1154 101.867 14.2473 101.867 14.3482V21.8945C101.867 22.2446 101.973 22.5296 102.19 22.7673C102.402 23.0002 102.695 23.1125 103.087 23.1125H110.019C110.116 23.1125 110.194 23.1907 110.194 23.2868V28.3057C110.194 28.4017 110.116 28.4783 110.019 28.4783H101.915ZM124.36 28.4783C124.263 28.4783 124.185 28.4017 124.185 28.3057V14.459C124.185 14.301 124.138 14.1447 124.039 13.9818C123.851 13.806 123.527 13.7164 123.075 13.7164H119.372C118.245 13.7164 118.114 14.1398 118.114 14.459V28.3057C118.114 28.4017 118.036 28.4783 117.94 28.4783H112.879C112.785 28.4783 112.706 28.4017 112.706 28.3057V1.0878C112.706 0.991724 112.783 0.915187 112.879 0.915187H117.94C118.036 0.915187 118.114 0.991724 118.114 1.0878V8.31485H124.762C126.123 8.31485 127.274 8.76267 128.183 9.64529C129.095 10.5295 129.556 11.6694 129.556 13.0308V28.3057C129.556 28.4017 129.478 28.4783 129.383 28.4783H124.36ZM11.7199 34.8683C11.4268 34.8683 11.1711 34.7624 10.9594 34.5524C10.7494 34.3407 10.6419 34.0801 10.6419 33.7772C10.6419 33.4662 10.7429 33.2024 10.9415 32.9923C11.1435 32.7806 11.3942 32.6731 11.689 32.6731C12.0033 32.6731 12.2703 32.7823 12.4869 32.9972C12.7019 33.2122 12.811 33.476 12.811 33.7789C12.811 34.0801 12.7035 34.3407 12.4934 34.5507C12.2834 34.7624 12.0212 34.8683 11.7199 34.8683ZM14.2684 34.8683C13.9737 34.8683 13.718 34.7608 13.508 34.5507C13.2979 34.3407 13.1904 34.0801 13.1904 33.7772C13.1904 33.4662 13.2914 33.2024 13.49 32.9923C13.6903 32.779 13.9476 32.6715 14.2522 32.6715C14.5665 32.6715 14.8303 32.7774 15.042 32.9891C15.252 33.1991 15.3595 33.4646 15.3595 33.7772C15.3595 34.0801 15.252 34.3407 15.042 34.5507C14.8303 34.7608 14.5697 34.8667 14.2668 34.8667M53.089 34.8667C52.7861 34.8667 52.5239 34.7608 52.3138 34.5507C52.1038 34.3391 51.9979 34.0785 51.9979 33.7756C51.9979 33.4662 52.0972 33.2024 52.2959 32.9923C52.4978 32.779 52.7551 32.6715 53.0597 32.6715C53.3723 32.6715 53.641 32.7806 53.856 32.9956C54.0726 33.2105 54.18 33.4743 54.18 33.7772C54.18 34.0801 54.0742 34.3407 53.8641 34.5491C53.6524 34.7608 53.3919 34.8667 53.089 34.8667ZM101.306 34.8667C101.001 34.8667 100.742 34.7608 100.53 34.5491C100.319 34.3391 100.213 34.0785 100.213 33.7756C100.213 33.4662 100.314 33.2008 100.513 32.9907C100.713 32.7774 100.97 32.6715 101.276 32.6715C101.589 32.6715 101.856 32.779 102.073 32.994C102.288 33.2105 102.397 33.4727 102.397 33.7756C102.397 34.0785 102.291 34.3391 102.079 34.5491C101.869 34.7608 101.609 34.8667 101.306 34.8667ZM128.569 34.8667C128.266 34.8667 128.006 34.7592 127.794 34.5491C127.584 34.3374 127.478 34.0769 127.478 33.774C127.478 33.4646 127.579 33.2008 127.778 32.9907C127.978 32.7774 128.235 32.6699 128.54 32.6699C128.852 32.6699 129.121 32.779 129.336 32.994C129.553 33.2089 129.66 33.4727 129.66 33.7756C129.66 34.0785 129.554 34.3391 129.344 34.5475C129.131 34.7592 128.874 34.865 128.569 34.865M60.5277 40.9489C60.2216 40.9489 59.961 40.8382 59.7558 40.62C59.5523 40.405 59.4497 40.1428 59.4497 39.8432C59.4497 39.5403 59.5506 39.2814 59.7493 39.0729C59.9496 38.8596 60.2069 38.7521 60.5114 38.7521C60.8029 38.7521 61.0635 38.858 61.2833 39.0648C61.5064 39.2765 61.6188 39.5387 61.6188 39.8432C61.6188 40.1428 61.5162 40.405 61.311 40.62C61.1058 40.8382 60.842 40.9489 60.5261 40.9489M5.24197 37.2426C5.52369 37.2426 5.74027 37.1693 5.89986 37.0162C6.05945 36.868 6.13598 36.6661 6.13598 36.399V35.3829C6.13598 35.1468 6.05131 34.9579 5.88195 34.8048C5.70608 34.6468 5.49112 34.5687 5.22568 34.5687H1.88737V37.2426H5.24197ZM5.198 41.7859C5.43738 41.7859 5.65071 41.6915 5.84449 41.4961C6.03991 41.299 6.13436 41.0808 6.13436 40.8284V39.8171C6.13436 39.6804 6.06271 39.555 5.91452 39.4279C5.70282 39.2342 5.48135 39.143 5.22731 39.143H1.88737V41.7859H5.198ZM0.174244 43.6863C0.0781653 43.6863 0 43.6082 0 43.5137V32.8425C0 32.7464 0.0781653 32.6699 0.174244 32.6699H5.58231C6.31186 32.6699 6.90461 32.9223 7.34266 33.4222C7.55111 33.6616 7.71883 33.9336 7.83934 34.2299C7.95984 34.5312 8.02335 34.8178 8.02335 35.0849V36.3697C8.02335 36.6026 7.97776 36.8615 7.88819 37.1367C7.797 37.4201 7.70255 37.6253 7.59507 37.7653C7.51854 37.8663 7.3964 37.9835 7.2303 38.1154C7.28567 38.1561 7.33289 38.1887 7.37523 38.2148C7.58693 38.3857 7.74 38.6088 7.854 38.8922C7.96636 39.169 8.02335 39.4556 8.02335 39.7439V40.7519C8.02335 41.5824 7.7742 42.2859 7.28404 42.8412C6.78899 43.4014 6.15227 43.6863 5.39504 43.6863H0.174244ZM12.0424 39.4084C11.7688 39.4084 11.5457 39.4768 11.3796 39.6071C11.2249 39.7325 11.1483 39.8969 11.1483 40.1086V41.3967C11.1483 41.4407 11.1614 41.5221 11.2233 41.6605C11.2721 41.7696 11.3324 41.856 11.4024 41.9178C11.4431 41.9423 11.6141 42.009 12.0733 42.009H13.8792C14.4117 42.009 14.5176 41.9358 14.5274 41.9276C14.6055 41.8657 14.6707 41.7794 14.7244 41.6687C14.7765 41.5596 14.8042 41.47 14.8042 41.3967V40.1086C14.8042 39.8953 14.7293 39.7308 14.5779 39.6054C14.4183 39.4752 14.1887 39.4084 13.8955 39.4084H12.0424ZM11.6874 43.6863C11.106 43.6863 10.5865 43.4486 10.1387 42.9812C9.69577 42.5171 9.46941 41.9732 9.46941 41.3674V40.405C9.46941 39.568 9.65994 38.9117 10.0329 38.4525C10.4172 37.9835 10.9676 37.7458 11.6727 37.7458H14.8042V37.4005C14.8042 37.2833 14.8042 37.0113 14.1756 37.0113H9.64203C9.54595 37.0113 9.46941 36.9332 9.46941 36.8387V35.505C9.46941 35.4106 9.54595 35.334 9.64203 35.334H14.3841C14.7716 35.334 15.0566 35.365 15.2537 35.4301C15.4556 35.4985 15.6624 35.6369 15.8643 35.8437C16.0614 36.0457 16.2161 36.2802 16.3284 36.5407C16.4408 36.8029 16.4978 37.0781 16.4978 37.3566V41.47C16.4978 42.0465 16.2828 42.5643 15.8578 43.0105C15.4312 43.4583 14.9296 43.6863 14.3694 43.6863H11.6874ZM20.4142 43.6863C19.7417 43.6863 19.1684 43.4763 18.7125 43.0643C18.2516 42.6474 18.0188 42.1165 18.0188 41.4863V37.5341C18.0188 37.1009 18.0774 36.7589 18.1979 36.4935C18.32 36.2199 18.5366 35.987 18.8428 35.803C19.2759 35.4936 19.8019 35.334 20.3995 35.334H23.4529C23.5473 35.334 23.6255 35.4106 23.6255 35.505V36.8387C23.6255 36.9332 23.5473 37.0113 23.4529 37.0113H20.3995C20.1797 37.0113 20.0103 37.0716 19.885 37.197C19.7596 37.3224 19.6993 37.4901 19.6993 37.7116V41.1883C19.6993 41.4146 19.771 41.6035 19.9208 41.7696C20.0657 41.9309 20.2367 42.009 20.4451 42.009H23.4822C23.5783 42.009 23.6548 42.0856 23.6548 42.1816V43.5137C23.6548 43.6082 23.5783 43.6863 23.4822 43.6863H20.4142ZM34.269 37.0113C33.9352 37.0113 33.5525 37.1058 33.5525 37.8484L33.5574 39.1951L37.0895 37.5422V37.5178C37.0895 37.3191 37.0504 37.1791 36.9788 37.1156C36.9332 37.0765 36.8029 37.0113 36.4479 37.0113H34.269ZM34.2251 43.6863C33.5183 43.6863 32.9451 43.4746 32.5184 43.0594C32.0902 42.6441 31.8736 42.0839 31.8736 41.3967V37.8158C31.8736 36.1678 32.7595 35.334 34.5068 35.334H36.4919C37.2067 35.334 37.7734 35.5311 38.1773 35.9235C38.5795 36.3144 38.7847 36.8664 38.7847 37.5634V38.5111C38.7847 38.5779 38.744 38.6398 38.6837 38.6675L33.5525 41.0466V41.2046L33.5965 41.5221C33.6242 41.6182 33.6421 41.6964 33.647 41.7338C33.647 41.7338 33.6535 41.755 33.6877 41.8038C33.7789 41.9748 34.0606 42.009 34.2837 42.009H38.6837C38.7798 42.009 38.858 42.0856 38.858 42.1816V43.5137C38.858 43.6082 38.7798 43.6863 38.6837 43.6863H34.2251ZM40.3154 43.6863C40.2194 43.6863 40.1412 43.6082 40.1412 43.5137V37.622C40.1412 36.8517 40.3057 36.2802 40.6314 35.9235C40.8154 35.7509 41.0629 35.6092 41.3756 35.4985C41.6833 35.3894 41.9895 35.334 42.2859 35.334H43.0415C43.1359 35.334 43.2141 35.4106 43.2141 35.505V36.8534C43.2141 36.9478 43.1359 37.026 43.0415 37.026H42.3885C41.9911 37.026 41.8218 37.2133 41.8218 37.6529V43.5137C41.8218 43.6082 41.7436 43.6863 41.6491 43.6863H40.3154ZM46.4058 37.0113C46.072 37.0113 45.6893 37.1058 45.6893 37.8484L45.6926 39.1951L49.2247 37.5422V37.5178C49.2247 37.3191 49.1856 37.1791 49.1139 37.1156C49.0683 37.0765 48.9397 37.0113 48.5814 37.0113H46.4058ZM46.3602 43.6863C45.6551 43.6863 45.0803 43.4746 44.6536 43.0594C44.227 42.6441 44.0088 42.0839 44.0088 41.3967V37.8158C44.0088 36.1678 44.8946 35.334 46.642 35.334H48.627C49.3419 35.334 49.9086 35.5311 50.3108 35.9235C50.7147 36.3144 50.9183 36.8664 50.9183 37.5634V38.5111C50.9183 38.5779 50.8808 38.6398 50.8189 38.6675L45.6893 41.0466V41.2046L45.7317 41.5221C45.7593 41.6182 45.7772 41.6964 45.7838 41.7338C45.7838 41.7338 45.7903 41.755 45.8228 41.8038C45.914 41.9748 46.1958 42.009 46.4189 42.009H50.8205C50.9166 42.009 50.9932 42.0856 50.9932 42.1816V43.5137C50.9932 43.6082 50.9166 43.6863 50.8205 43.6863H46.3602ZM52.436 43.6863C52.3399 43.6863 52.2617 43.6082 52.2617 43.5137V35.505C52.2617 35.4106 52.3399 35.334 52.436 35.334H53.7534C53.8495 35.334 53.9276 35.4106 53.9276 35.505V43.517C53.9276 43.6131 53.8495 43.6912 53.755 43.6912L52.436 43.6863ZM77.343 37.0113C76.8073 37.0113 76.5679 37.254 76.5679 37.7995V41.1166C76.5679 41.4456 76.6282 41.6817 76.747 41.8152C76.8594 41.9423 77.0613 42.009 77.343 42.009H79.4926C80.0284 42.009 80.2677 41.7501 80.2677 41.1753V37.7995C80.2677 37.254 80.0284 37.0113 79.4926 37.0113H77.343ZM77.1949 43.6863C76.5207 43.6863 75.9638 43.486 75.5371 43.0936C75.1072 42.6946 74.889 42.1702 74.889 41.5303V37.3859C74.889 36.754 75.0974 36.2492 75.5094 35.8812C75.9165 35.5164 76.4832 35.334 77.1949 35.334H79.6408C80.3231 35.334 80.8817 35.5197 81.3034 35.8861C81.7301 36.2606 81.9467 36.7638 81.9467 37.3859V41.5449C81.9467 42.154 81.7236 42.6702 81.2839 43.0773C80.8475 43.4811 80.2954 43.6863 79.6408 43.6863H77.1949ZM88.9604 43.6863C88.8643 43.6863 88.7878 43.6082 88.7878 43.5137V37.3712C88.7861 37.3614 88.7666 37.2963 88.6689 37.1921C88.55 37.0976 88.3416 37.0406 88.0647 37.0406H85.9152C85.5423 37.0406 85.3859 37.1172 85.3208 37.1823C85.228 37.2751 85.1775 37.4673 85.1775 37.7409V43.5137C85.1775 43.6082 85.101 43.6863 85.0049 43.6863H83.6712C83.5751 43.6863 83.4969 43.6082 83.4969 43.5137V37.5634C83.4969 36.8127 83.7526 36.2199 84.2574 35.803C84.632 35.4904 85.1873 35.334 85.9087 35.334H88.0273C88.7471 35.334 89.3072 35.4904 89.6916 35.8014C89.9407 36.0066 90.1312 36.2574 90.2599 36.5537C90.3885 36.8469 90.452 37.1856 90.452 37.5634V43.5137C90.452 43.6082 90.3755 43.6863 90.2794 43.6863H88.9604ZM94.3831 37.0113C93.8995 37.0113 93.6829 37.2361 93.6829 37.7409V41.3381C93.6829 41.5254 93.7382 41.6833 93.8506 41.8201C93.9565 41.9488 94.0737 42.009 94.2203 42.009H96.562C96.7786 42.009 96.9447 41.9406 97.07 41.799C97.2003 41.654 97.2638 41.4635 97.2638 41.2192V37.7116C97.2638 37.2279 97.0521 37.0113 96.5766 37.0113H94.3831ZM94.1616 43.6863C93.9027 43.6863 93.6194 43.6228 93.323 43.4958C93.0266 43.3688 92.7693 43.1962 92.5576 42.9845C92.1896 42.6164 92.0023 42.0888 92.0023 41.4114V37.5341C92.0023 36.8371 92.2075 36.2883 92.613 35.9056C93.0136 35.5262 93.5949 35.334 94.3391 35.334H97.2638V32.8425C97.2638 32.7464 97.3404 32.6699 97.4364 32.6699H98.7701C98.8646 32.6699 98.9428 32.7464 98.9428 32.8425V41.2665C98.9428 41.9292 98.7327 42.5041 98.3142 42.9731C97.8908 43.4486 97.3762 43.6912 96.7851 43.6912L94.1616 43.6863ZM100.651 43.6863C100.557 43.6863 100.478 43.6082 100.478 43.5137V35.505C100.478 35.4106 100.557 35.334 100.651 35.334H101.97C102.066 35.334 102.144 35.4106 102.144 35.505V43.517C102.144 43.6131 102.066 43.6912 101.97 43.6912L100.651 43.6863ZM103.867 43.6863C103.771 43.6863 103.693 43.6082 103.693 43.5137V32.8425C103.693 32.7464 103.771 32.6699 103.867 32.6699H105.201C105.297 32.6699 105.373 32.7464 105.373 32.8425V35.334H106.564C106.66 35.334 106.737 35.4106 106.737 35.505V36.8387C106.737 36.9332 106.66 37.0113 106.564 37.0113H105.373V43.5137C105.373 43.6082 105.297 43.6863 105.201 43.6863H103.867ZM109.467 37.0113C108.932 37.0113 108.694 37.254 108.694 37.7995V41.1166C108.694 41.4456 108.754 41.6817 108.871 41.8152C108.985 41.9423 109.186 42.009 109.467 42.009H111.617C112.153 42.009 112.392 41.7501 112.392 41.1753V37.7995C112.392 37.254 112.153 37.0113 111.617 37.0113H109.467ZM109.319 43.6863C108.647 43.6863 108.088 43.486 107.661 43.0936C107.232 42.6962 107.013 42.1702 107.013 41.5303V37.3859C107.013 36.754 107.222 36.2492 107.632 35.8812C108.039 35.5164 108.608 35.334 109.319 35.334H111.765C112.447 35.334 113.006 35.5197 113.428 35.8861C113.854 36.2606 114.071 36.7638 114.071 37.3859V41.5449C114.071 42.154 113.848 42.6702 113.408 43.0773C112.972 43.4811 112.42 43.6863 111.765 43.6863H109.319ZM115.796 43.6863C115.699 43.6863 115.623 43.6082 115.623 43.5137V37.622C115.623 36.8517 115.787 36.2802 116.111 35.9235C116.294 35.7509 116.543 35.6092 116.856 35.4985C117.163 35.3894 117.47 35.334 117.766 35.334H118.522C118.618 35.334 118.694 35.4106 118.694 35.505V36.8534C118.694 36.9478 118.618 37.026 118.522 37.026H117.87C117.473 37.026 117.302 37.2133 117.302 37.6529V43.5137C117.302 43.6082 117.225 43.6863 117.129 43.6863H115.796ZM121.884 37.0113C121.552 37.0113 121.169 37.1058 121.169 37.8484L121.173 39.1951L124.705 37.5422V37.5178C124.705 37.3191 124.667 37.1807 124.594 37.1172C124.548 37.0765 124.42 37.0113 124.063 37.0113H121.884ZM121.842 43.6863C121.135 43.6863 120.562 43.4746 120.135 43.0594C119.707 42.6441 119.489 42.0839 119.489 41.3967V37.8158C119.489 36.1678 120.375 35.334 122.122 35.334H124.109C124.824 35.334 125.39 35.5311 125.793 35.9235C126.195 36.3144 126.4 36.8664 126.4 37.5634V38.5111C126.4 38.5779 126.361 38.6398 126.301 38.6675L121.169 41.0466V41.2046L121.212 41.5221C121.241 41.6182 121.259 41.6964 121.264 41.7338C121.264 41.7338 121.27 41.755 121.303 41.8038C121.396 41.9748 121.677 42.009 121.899 42.009H126.301C126.397 42.009 126.475 42.0856 126.475 42.1816V43.5137C126.475 43.6082 126.397 43.6863 126.301 43.6863H121.842ZM127.916 43.6863C127.82 43.6863 127.743 43.6082 127.743 43.5137V35.505C127.743 35.4106 127.82 35.334 127.916 35.334H129.235C129.331 35.334 129.408 35.4106 129.408 35.505V43.517C129.408 43.6131 129.331 43.6912 129.235 43.6912L127.916 43.6863ZM30.0188 43.6831C29.9716 43.6831 29.9276 43.6652 29.895 43.631L26.56 40.1982C26.5339 40.1673 26.5095 40.1379 26.485 40.107V43.5137C26.485 43.6082 26.4085 43.6863 26.3124 43.6863H24.9787C24.8827 43.6863 24.8061 43.6082 24.8061 43.5137V32.8425C24.8061 32.7464 24.8827 32.6699 24.9787 32.6699H26.3124C26.4085 32.6699 26.485 32.7464 26.485 32.8425V38.5926C26.5062 38.5681 26.5306 38.5437 26.5551 38.5176L29.6882 35.3845C29.7208 35.3536 29.7647 35.334 29.8103 35.334H31.6912C31.7612 35.334 31.8247 35.3764 31.8508 35.4399C31.8768 35.505 31.8638 35.5783 31.8133 35.6288L28.0956 39.3709L31.9794 43.3932C32.0266 43.4437 32.0397 43.517 32.0136 43.5805C31.9859 43.6456 31.9241 43.6863 31.854 43.6863L30.0188 43.6831ZM73.0847 43.6798C73.0326 43.6798 72.9821 43.657 72.9495 43.6163L69.4467 39.314C69.266 39.099 69.121 38.902 69.0103 38.7245V43.5137C69.0103 43.6082 68.9338 43.6863 68.8377 43.6863H67.2972C67.2011 43.6863 67.1245 43.6082 67.1245 43.5137V32.8425C67.1245 32.7464 67.2011 32.6699 67.2972 32.6699H68.8377C68.9338 32.6699 69.0103 32.7464 69.0103 32.8425V37.3126C69.0412 37.2686 69.0738 37.2263 69.108 37.1823L69.533 36.6775L72.7264 32.7383C72.759 32.6992 72.8095 32.6764 72.8616 32.6764L74.8548 32.6683C74.9216 32.6683 74.9818 32.7073 75.0111 32.7676C75.0388 32.8279 75.0307 32.8995 74.9883 32.95L70.839 38.0373L75.2098 43.403C75.2521 43.4567 75.2619 43.5284 75.2326 43.5886C75.2033 43.6489 75.143 43.6863 75.0763 43.6863L73.0847 43.6798Z" fill="#2C2E35"/>
</svg>
