<svg width="151" height="56" viewBox="0 0 151 56" fill="none" xmlns="http://www.w3.org/2000/svg">
<path d="M109.521 6.46972C109.852 7.66407 108.95 9.81915 107.724 10.627C107.903 9.16691 108.764 7.17435 109.521 6.46972ZM115.887 9.37006C114.879 11.2038 114.457 12.9472 113.053 14.5223C114.105 12.7174 114.727 11.199 115.887 9.37006ZM106.705 15.9556C107.51 17.429 109.505 18.4496 111.371 17.2724C112.203 16.7431 112.801 15.9984 113.31 15.1948C114.168 13.8935 114.877 12.4319 115.593 11.0087C115.994 10.2297 116.504 9.4262 116.825 8.62694C116.951 8.33022 116.963 8.21207 116.984 8.13134C117.041 8.04152 116.953 7.98484 116.617 7.82819L116.347 8.15646C114.936 10.2308 113.908 12.1469 112.049 14.2443C111.604 14.9943 110.704 15.383 109.992 15.7706C108.943 16.3464 107.872 16.4672 107.609 14.8746C107.606 14.6832 107.502 14.5522 107.498 14.3613C107.498 13.824 107.292 13.2162 107.552 12.6612L108.278 12.6928C110.165 12.8542 113.726 6.50606 110.19 5.1711C109.082 4.76211 108.114 5.01339 107.499 6.03186C107.217 6.4772 106.95 6.99632 106.799 7.5288C106.46 8.6018 106.202 9.69405 105.907 10.7954L105.846 12.4597C105.877 12.6067 105.917 12.7895 105.911 12.944C105.95 14.0106 106.232 14.9847 106.705 15.9556ZM78.995 18.0925C79.0366 17.93 79.244 17.3082 79.2783 17.6461C79.2999 18.1021 78.7864 20.4796 79.3441 21.8541C79.4631 22.0584 79.3625 22.1188 79.3188 22.0899C78.6027 21.7477 78.8681 18.7346 78.995 18.0925ZM88.7204 11.0408C89.0506 12.2357 88.1491 14.3913 86.9227 15.198C87.1033 13.7385 87.9632 11.7459 88.7204 11.0413M94.9399 14.1806C94.9406 14.1942 94.9409 14.2079 94.9409 14.2218C94.0379 15.9524 93.5839 17.5996 92.2522 19.0949C93.2575 17.3697 93.8746 15.9032 94.9399 14.1806ZM96.2369 5.51273C96.3095 5.49669 96.1674 5.71964 96.2474 5.74155C96.0136 6.06179 96.061 7.70148 96.0278 9.32087C96.0036 10.0939 95.8951 11.0007 95.9525 11.4487C95.8788 10.9269 95.8351 9.4786 95.7982 9.48662C95.7824 9.41338 95.755 9.45775 95.7703 9.53046L95.7619 9.49409C95.8203 7.63894 95.9715 5.68755 96.2369 5.51273ZM98.9087 14.6757C99.0725 14.0256 99.3906 13.0344 99.5986 12.4132C99.7934 11.9095 100.209 10.6665 100.517 9.98542C102.552 5.69931 102.861 21.3307 98.0846 18.0813C98.4095 16.5897 98.7244 15.4076 98.9087 14.6757ZM99.5343 10.1624L99.5575 10.272L99.6897 10.3586C99.0841 11.9507 98.5443 13.144 97.982 14.7639C97.8234 13.839 98.6491 11.508 99.5343 10.1624ZM82.4383 23.2474C83.3756 21.8851 84.3793 19.5488 85.1212 17.6301C85.1755 18.6517 85.4498 19.5921 85.9037 20.5283C86.7094 22.0012 88.7041 23.0218 90.5693 21.844C91.4028 21.3152 92 20.5705 92.5092 19.7669C93.3659 18.4657 94.0752 17.0045 94.7924 15.5808C94.8514 15.4669 94.9146 15.352 94.9767 15.2381C95.0452 16.7142 95.1468 18.1428 95.2874 19.5018C95.4544 20.463 96.7345 20.2588 97.5733 20.6502L97.903 19.0035C98.7055 19.7493 99.8334 20.0765 100.829 19.7808C103.267 18.9762 106.608 10.1811 102.379 8.07841C99.8013 6.80225 98.3369 11.4626 97.6744 13.1429C97.4412 12.58 97.5786 4.18151 97.6723 3.20154C97.7971 2.36805 97.9377 0.725136 97.4159 0.225258C96.9298 -0.281567 95.2764 0.119942 95.2153 0.901031C94.9193 5.19516 94.8019 9.5807 94.923 13.6679C93.803 15.3921 92.8225 17.0393 91.2475 18.8164C90.8025 19.567 89.9026 19.9562 89.1912 20.3433C88.1428 20.9185 87.0717 21.0394 86.8068 19.4462C86.8047 19.2553 86.701 19.1249 86.6983 18.9335C86.6973 18.3962 86.4919 17.7883 86.7515 17.2328L87.4766 17.2649C89.3639 17.4258 92.9247 11.0782 89.3892 9.74377C88.2807 9.33424 87.3134 9.58551 86.6989 10.6045C86.4161 11.0499 86.1486 11.569 85.9975 12.1015C85.6589 13.1734 85.4003 14.2667 85.106 15.368L85.0907 15.7931C84.9095 16.1588 84.7358 16.5287 84.5652 16.9072L83.2856 19.4146C80.2682 25.8355 80.2762 23.5692 80.6521 17.8819C80.7538 16.0561 81.5884 15.182 79.8222 14.8789C78.1804 14.6255 77.9966 15.3573 77.9371 16.6752C77.816 19.1195 77.6654 22.4925 79.4273 24.3701C80.3915 25.3479 81.6105 24.5043 82.4383 23.2474ZM79.5568 13.6316C79.4678 13.0376 79.0776 10.3206 79.5726 9.98168L79.7454 9.90522C80.7796 9.79295 81.3409 10.4757 80.9302 11.5642C80.6379 12.3201 80.4246 12.5586 80.1914 13.4161C80.0808 13.7855 79.6453 14.2261 79.5568 13.6316ZM66.6872 27.7457C66.6082 28.2627 66.674 28.7466 66.5118 28.1681C65.0842 22.5326 65.1401 18.1829 65.6893 12.0731C65.8451 9.96671 65.4544 11.8561 65.8578 9.84908C66.3496 11.6219 66.0763 11.7577 66.0542 13.6054C66.0489 16.0631 66.823 9.94318 66.6219 12.3682C66.5028 13.5835 66.1037 14.8997 66.0895 15.9005C65.9789 16.2705 65.803 17.0393 65.9015 17.3237C65.8962 17.4782 65.8999 17.6696 65.8583 17.8327L65.7814 18.0027L65.8652 18.2149C65.8836 18.4796 65.8583 18.7153 65.8404 18.988C65.8193 19.9519 65.744 19.7766 65.7878 20.6886C65.8193 21.373 65.9873 22.3337 66.041 22.5903C66.1895 23.2869 66.1458 23.2586 66.1579 24.0231C66.2022 25.4725 66.8309 26.2937 66.6872 27.7463M67.0099 22.8769L66.9536 22.9656C66.9378 22.8929 66.9336 22.1647 66.9462 22.0461C66.9436 21.8557 67.3633 21.8782 67.0099 22.8763M67.0942 19.019L67.1932 19.305L67.1574 19.3125L67.1132 19.2842C67.0974 19.2104 67.0816 19.1372 67.0942 19.019ZM71.1515 24.0392C71.3084 23.8895 71.6613 23.2362 71.8003 23.3586C71.8198 23.6238 71.6133 23.8986 71.5159 24.1509L70.8166 25.302C70.6181 25.6147 69.4738 27.5174 68.8667 28.5717L68.7424 27.9847C69.4823 26.6711 70.2147 25.3201 71.1515 24.0392ZM72.0625 23.8772C72.2589 23.9109 72.1088 24.0969 72.0251 24.2311C70.9003 26.052 69.8851 27.8489 68.9362 29.7848L69.0389 29.3785L68.8978 28.7182C70.0041 27.1694 70.8835 25.4415 72.0625 23.8772ZM68.3327 31.0305C68.2064 31.3272 68.081 31.6228 67.9188 31.9276C68.1384 32.0719 68.2348 32.1655 68.655 32.1885C69.0399 31.3357 69.4981 30.467 69.8714 29.7335C71.8456 26.2279 73.2663 24.3803 76.4537 21.9525C76.4147 21.7691 76.3831 21.6226 76.2436 21.4991C75.3463 20.6598 73.9967 20.5347 73.0051 21.5585C72.5901 21.9188 72.2189 22.3075 71.8566 22.7331C70.973 23.7328 69.7513 25.8056 68.6945 27.765L67.5207 21.7285L67.5618 20.1449L67.4776 16.5554L67.7998 13.9892L67.922 13.5017C68.1458 10.6505 68.101 11.5048 68.6008 7.28769C68.7851 5.13689 68.3928 2.76581 67.0231 1.83877C65.654 0.91119 64.2954 0.749199 63.0011 2.30015C61.5203 4.04571 58.4841 11.0846 59.047 13.7246C59.2481 14.487 60.4603 15.5637 60.7642 14.1539C60.9158 13.6219 61.0517 13.0162 61.1654 12.4923C61.8726 9.41924 63.4086 4.74446 65.496 3.36406C65.7746 4.49265 65.7546 5.11123 65.6645 6.28313C65.4923 7.77902 65.3275 9.31179 65.1996 10.8381C64.5292 17.6258 64.5029 21.0474 65.783 27.4073C66.0884 28.8374 66.852 32.7766 68.3327 31.0305ZM41.8225 30.1018C41.9409 30.305 41.8398 30.3659 41.7967 30.3371C41.0805 29.9954 41.3459 26.9817 41.4733 26.3397C41.5144 26.1771 41.7219 25.5559 41.7561 25.8932C41.7782 26.3487 41.2643 28.7268 41.8225 30.1018ZM51.4784 17.2318L54.2651 17.0024C53.3825 17.12 50.9803 17.3788 50.9803 17.3788C50.9444 17.3868 50.9444 17.3868 50.9002 17.3585C50.9213 17.2767 51.4136 17.2836 51.4784 17.2318ZM48.0688 25.0047C48.1362 26.0269 48.2678 27.5335 48.6422 28.7556C49.3594 31.0545 50.4089 31.8992 51.154 31.8501C53.3709 31.7848 55.0939 23.7291 55.6531 21.9178C55.7142 21.6745 55.7743 21.7761 55.2498 21.6221C54.2214 23.5377 53.5637 27.3667 52.3625 29.3576C51.6343 30.5552 51.2235 30.2227 51.005 29.1962C50.5305 27.1502 50.7802 21.76 50.9734 17.8792L51.2788 17.8888C52.9376 17.8701 54.878 17.7509 55.6716 17.0387C55.4925 16.7329 54.908 15.9401 54.8027 16.155C54.62 16.5405 52.8754 16.6939 50.9997 16.7602C51.0566 15.7886 51.0807 15.0157 51.0719 14.4415C51.0982 13.3231 50.381 13.3258 49.1061 13.3766C48.7654 13.375 48.2863 13.7866 48.2762 14.0962C48.2726 14.788 48.2078 15.7241 48.1378 16.8137C46.7829 16.8431 43.2658 17.1933 44.5201 19.528L44.675 19.7242C44.8303 19.9204 45.2542 20.1343 45.3026 20.0086C45.3042 19.6627 44.6771 19.3788 45.0962 18.8645C45.7576 18.0658 46.3516 18.0123 48.0761 17.9407C48.0035 19.3767 47.9508 21.0768 47.9487 22.8432L47.9719 23.2591C47.6365 23.874 47.3368 24.5032 47.043 25.1539L45.7629 27.6613C42.7466 34.0821 42.7545 31.8164 43.13 26.1285C43.2321 24.3022 44.0662 23.4286 42.3006 23.1249C40.6582 22.8715 40.4739 23.6034 40.4154 24.9213C40.2938 27.3661 40.1421 30.7391 41.9046 32.6167C42.8693 33.5945 44.0878 32.7504 44.9167 31.494C46.0625 29.8297 47.3073 26.7091 48.0514 24.6775L48.0688 25.0047ZM42.0352 21.8782C41.9457 21.2837 41.5555 18.5673 42.0499 18.2288L42.2232 18.1524C43.2579 18.0401 43.8187 18.7228 43.4085 19.8113C43.1163 20.5662 42.902 20.8052 42.6692 21.6622C42.5586 22.0322 42.1237 22.4732 42.0352 21.8782ZM33.8231 28.9411C34.3123 26.7994 35.216 24.2979 36.1764 23.1276C35.1944 25.2618 34.7768 26.8513 33.8231 28.9411ZM26.9623 30.4499C27.4378 28.4258 28.2919 26.0499 29.165 24.8219L29.1887 24.932C28.2835 26.8962 27.8585 28.4482 26.9623 30.4493M35.8147 29.7693C35.7199 31.0952 35.9295 32.4317 36.4719 33.733C37.029 35.107 38.0016 36.1217 39.4734 36.643C39.9257 36.8125 40.3701 36.9445 40.7614 36.4751C40.5623 36.25 40.3375 36.2607 40.0737 36.0886C39.0179 35.7448 38.6098 33.301 38.5671 32.389C38.4434 30.0366 38.9384 25.9745 39.14 23.55C39.2712 22.2161 37.5424 20.1391 36.1175 22.1412C34.9748 23.6975 34.5145 25.7949 33.7152 27.5447L32.3671 30.7963C32.276 29.1267 32.117 27.3196 32.0159 25.9601C32.0317 25.496 31.9912 25.3126 31.958 24.9748C31.9875 24.5845 31.9527 24.2466 31.8832 23.9162L31.8753 23.8798C31.522 22.5754 30.3819 22.0193 29.2192 23.6574C28.0766 25.2137 27.6163 27.3111 26.8533 29.0524C26.5811 29.726 25.7849 31.6667 25.4689 32.3125C25.3662 31.2978 25.1567 28.5423 25.1703 27.542C25.1424 26.7032 25.1145 26.7481 25.0139 25.3875C23.9755 25.3089 22.668 25.558 22.3968 25.8863C22.3126 26.02 22.2799 26.2188 22.3215 26.5941L22.4005 27.4977L22.8044 34.3569C22.8265 34.8124 22.9719 35.3182 23.1098 35.7854C23.1483 35.9694 23.2678 36.1736 23.4079 36.2971C24.0382 36.7729 25.3694 36.6339 25.7217 35.9806C25.9613 35.5058 26.1113 34.9728 26.3072 34.4697L27.8617 30.0591C28.2566 28.8978 28.6884 27.7276 29.1271 26.5947C29.1629 26.5872 29.2087 26.2702 29.2708 26.0258L29.6342 32.1644C29.6526 32.4291 29.6431 32.7386 29.6979 32.9952L29.7216 33.1048C29.7637 33.4801 29.849 33.8827 29.9717 34.2778C30.0107 34.4617 30.1297 34.6654 30.305 34.7809C30.9001 35.2642 32.2308 35.1252 32.5836 34.4724C32.8232 33.9971 33.0101 33.4566 33.1686 32.961L34.7241 28.5503C35.1549 27.3816 35.5503 26.2194 35.989 25.087C36.0695 25.1079 36.1986 24.1204 36.2791 24.1407L36.158 25.7018C36.0343 27.0726 35.9031 28.4071 35.8147 29.7693ZM15.3612 37.5663C15.3591 37.9117 15.269 38.1998 15.0636 38.4762C14.7514 38.967 14.4333 39.4204 14.2174 40.0053C14.2174 40.0053 14.2259 40.0422 14.1885 40.0502C14.0115 40.2811 13.8699 40.5046 13.8604 40.8136C13.8683 40.85 13.8035 40.9024 13.7119 41.0002C13.6719 40.8163 13.6408 40.6698 13.6535 40.5516L13.8499 39.1659C13.9489 38.5682 14.209 38.0111 14.388 37.4353C14.4776 37.1466 14.6945 37.0985 14.8957 36.9777C14.9315 36.9691 15.0189 37.0274 15.0995 37.0482C15.2748 37.1632 15.3506 37.338 15.3612 37.5668M8.5356 39.067C8.53349 39.4124 8.44398 39.7011 8.23755 39.9764C7.92687 40.4677 7.60724 40.9211 7.39239 41.5054C7.39239 41.5054 7.39976 41.5428 7.36395 41.5509C7.1865 41.7818 7.04485 42.0048 7.03484 42.3138C7.04274 42.3512 6.97797 42.4036 6.88582 42.4998C6.84685 42.3175 6.81525 42.171 6.82789 42.0524L7.02431 40.6661C7.12331 40.0683 7.38291 39.5123 7.56195 38.9349C7.65147 38.6468 7.86842 38.5992 8.0701 38.4778C8.10591 38.4698 8.19385 38.5275 8.27389 38.5484C8.44977 38.6633 8.52454 38.8387 8.5356 39.067ZM1.71004 40.5666C1.70793 40.912 1.61841 41.2012 1.41252 41.4776C1.10078 41.9679 0.781673 42.4212 0.566301 43.0067C0.566301 43.0067 0.5742 43.0425 0.537339 43.0505C0.359881 43.2825 0.218756 43.5049 0.209277 43.8145C0.217176 43.8508 0.152407 43.9038 0.0607814 44C0.0212877 43.8172 -0.00977995 43.6712 0.00285803 43.552L0.197693 42.1662C0.297744 41.5685 0.556823 41.012 0.736387 40.4362C0.825906 40.1475 1.04391 40.0994 1.24349 39.9785C1.28035 39.9705 1.36776 40.0282 1.4478 40.0491C1.62368 40.1635 1.69898 40.3389 1.71004 40.5666Z" fill="#B27946"/>
<path d="M148.241 28.4503L148.269 28.4076L148.277 28.4425L148.241 28.4503ZM150.87 33.4956C150.954 34.2253 151.037 34.9566 150.969 35.6821L151 36.686C150.821 36.7251 150.726 36.6323 150.667 36.5333L150.123 35.753C149.722 34.9415 149.501 34.0914 149.358 33.2611C149.327 33.1183 149.34 33.0036 149.568 32.842C149.762 32.8749 150.028 32.8926 150.266 32.9525C150.655 33.0187 150.852 33.2376 150.87 33.4951M149.611 27.8546C149.354 27.5361 149.349 27.1634 149.335 26.7548C149.806 27.0269 149.533 27.497 149.611 27.8546ZM150.109 31.1903L150.065 31.1617L150.101 31.1538L150.109 31.1903ZM148.277 28.442C148.359 28.6494 148.469 28.8126 148.58 28.9762C148.508 28.9919 148.444 29.0424 148.409 29.0507C148.155 28.9173 148.144 28.6963 148.277 28.442M149.459 30.0958L149.415 30.0682L149.4 29.9962L149.459 30.0958ZM149.518 30.1948L149.474 30.1667L149.467 30.1317L149.518 30.1948ZM149.577 30.2944L149.533 30.2667L149.525 30.2302L149.577 30.2944ZM148.114 20.432L148.13 20.5039L148.173 20.5315L148.204 20.6749L148.24 20.6671L148.271 20.8099L148.307 20.8021L148.322 20.874C148.04 20.7849 148.04 20.7849 148.114 20.432ZM149.789 16.0653C149.306 15.9079 148.742 16.0674 148.284 16.2039C148.041 16.2941 147.794 16.5344 147.753 16.6928C147.616 17.0968 147.594 17.5132 147.564 17.8937C147.534 19.6596 147.433 21.44 147.483 23.2257C147.527 24.6382 147.757 26.0475 147.952 27.4652C147.986 27.7946 148.163 28.0928 148.268 28.4071C148.324 28.32 148.373 28.1975 148.35 28.0902C148.276 27.0582 148.131 26.0418 148.093 25.0025C148.016 23.7834 148.019 22.5856 147.978 21.3592C147.962 21.2883 148.054 21.193 148.166 21.0194C148.233 21.1549 148.312 21.1758 148.327 21.2466C148.498 22.0326 148.088 22.9078 148.625 23.6521C148.625 23.6521 148.632 23.688 148.604 23.7318C148.204 24.3046 148.514 24.8732 148.488 25.4408C148.488 26.8247 149.005 28.173 148.54 29.658C148.512 29.7017 148.563 29.7653 148.578 29.8373C148.634 30.6107 149.211 31.1971 149.715 31.7986C149.869 31.9904 150.082 32.2812 150.632 32.0498L150.108 31.1898C150.108 31.1898 150.072 31.1981 150.064 31.1617C149.982 30.9553 150 30.6894 149.882 30.4909C149.792 30.248 149.765 29.954 149.341 29.8967C149.253 29.3171 149.128 28.7453 149.112 28.1496C149.073 26.5859 149.07 25.0155 149.075 23.48C149.079 23.3289 149.199 23.1908 149.283 23.061C149.358 23.7558 149.304 24.3666 149.3 25.0405L149.334 26.7543C149.649 26.649 149.646 26.4624 149.642 26.2763C149.714 24.8758 149.749 23.4837 149.856 22.0759C149.994 20.8114 150.204 19.5308 150.37 18.2231C150.428 17.7983 150.478 17.3386 150.493 16.8862C150.479 16.4776 150.166 16.2462 149.789 16.0653ZM138.242 30.2006C138.727 28.1121 139.622 25.6738 140.538 24.5407C139.601 26.6136 139.187 28.1626 138.242 30.2006ZM131.189 34.6449C132.192 32.952 132.805 31.5145 133.873 29.8211L133.875 29.8539C132.965 31.5562 132.519 33.1761 131.189 34.6449ZM116.303 33.5337C116.303 33.5337 117.403 29.855 118.292 29.6064C119.182 29.3583 119.684 30.6868 119.645 31.8861C119.605 33.086 119.471 34.0096 118.344 34.2243C117.217 34.439 116.303 33.5337 116.303 33.5337M113.822 26.2383C113.589 26.551 113.636 28.1496 113.604 29.7283C113.603 30.5889 113.462 31.6672 113.568 31.981C113.497 31.9966 113.448 29.8737 113.376 29.8899C113.359 29.7403 113.343 29.966 113.332 30.1823L113.341 29.8972C113.398 28.0886 113.548 26.1856 113.811 26.0163C113.882 26.0001 113.778 26.2101 113.821 26.2383M104.816 34.4714C104.598 33.8084 105.235 32.7722 105.442 32.6909C105.351 33.309 104.915 33.8897 104.816 34.4714ZM95.6877 40.7499C95.6512 40.7577 95.6595 40.7926 95.6235 40.8009C95.588 40.8088 95.5087 40.789 95.5004 40.7535C95.4571 40.7243 95.4419 40.6529 95.4696 40.6102C95.6783 40.1906 95.9047 39.5052 96.0435 38.7635C96.1015 38.3393 96.247 37.9723 96.3712 37.6831C96.3921 37.6038 96.4991 37.5809 96.5272 37.5371C96.5784 37.6012 96.6373 37.6997 96.6457 37.7362C96.2763 38.4524 95.9183 39.9138 95.6877 40.7499ZM93.7091 42.3375C93.6402 42.5392 93.5713 42.7419 93.575 42.928C93.5886 43.3372 93.3271 43.1688 93.1377 42.9853C92.9551 42.8373 92.7944 42.6106 92.7908 42.4235C92.6008 40.8557 92.57 39.3285 93.708 38.1845C93.9757 37.8644 94.1124 37.46 94.4245 37.1686C94.6003 36.9435 94.9149 36.8382 95.2207 36.6969C95.3287 36.674 95.5025 36.7855 95.7404 36.8465C95.6997 37.005 95.6955 37.1556 95.6392 37.2426L93.7091 42.3375ZM127.689 26.795C128.017 27.9588 127.124 30.0598 125.908 30.8474C126.087 29.4234 126.94 27.4809 127.689 26.7944M142.907 33.5702C142.784 31.2758 143.274 27.3162 143.51 24.9446C143.641 23.6447 141.892 21.6271 140.479 23.5791C139.348 25.0958 138.891 27.141 138.136 28.8381C137.866 29.4959 137.077 31.3884 136.763 32.0175C136.661 31.0282 136.454 28.3414 136.467 27.3657C136.44 26.5484 136.412 26.5922 136.312 25.2662C135.283 25.1891 133.987 25.432 133.72 25.752C133.636 25.8823 133.603 26.0762 133.645 26.4421L133.723 27.3235L133.844 29.3416C132.731 31.0267 131.759 32.6357 130.195 34.3729C129.753 35.1046 128.861 35.4841 128.156 35.8614C127.117 36.4222 126.055 36.5406 125.794 34.9874C125.791 34.8013 125.689 34.6741 125.686 34.487C125.685 33.9632 125.481 33.3711 125.738 32.8295L126.457 32.8608C128.327 33.0177 131.856 26.8283 128.352 25.5284C127.254 25.1292 126.295 25.3746 125.687 26.366C125.406 26.8017 125.141 27.3073 124.991 27.8264C124.656 28.872 124.4 29.9373 124.109 31.011L124.072 31.9878C123.726 33.0823 123.373 34.3478 123.143 34.8497C122.982 35.1463 122.612 36.724 122.123 37.5778C121.746 38.2585 121.313 38.1646 120.468 37.8978C119.061 37.4537 117.804 35.63 116.936 34.733L117.51 35.1328C118.211 35.4299 118.925 35.6123 119.461 35.4961C120.857 35.1943 122.904 31.1596 119.897 28.5165C117.822 26.7199 116.008 31.49 115.311 33.2872C115.276 33.2955 115.233 33.2674 115.196 33.2752C115.009 31.894 115.159 24.6387 115.268 23.7542C115.356 22.9494 115.531 21.3405 114.978 20.861C114.496 20.3663 112.893 20.7494 112.834 21.5114C112.538 25.4294 112.593 29.8237 112.814 33.8819C111.888 35.2824 111.314 36.6109 110.437 37.9348C104.061 47.5824 105.064 34.2311 108.343 32.2499C108.482 32.3698 108.592 32.5324 108.695 32.6601L108.981 32.5976C109.378 32.6992 109.736 32.6226 109.873 32.2182C110.009 31.8147 109.852 31.4374 109.545 31.0538C107.296 28.2846 105.119 31.3754 104.438 33.2439C104.108 34.1346 103.912 34.9269 103.842 35.7097C102.982 37.7268 102.281 40.6399 101.22 42.2478C100.426 43.4289 100.054 43.0974 99.8744 42.0889C99.481 39.9295 100.073 34.7116 100.086 34.5964C100.096 34.2941 99.5838 34.181 99.2154 34.0367C97.6491 33.5519 97.4049 34.5021 97.3469 35.7879L97.3344 35.9026C97.0172 35.8213 96.6759 35.6331 96.4234 35.5007C95.1482 34.8039 92.7605 35.0207 92.3405 36.196L92.0989 36.8095C91.3026 38.6661 90.6588 40.1901 91.3767 42.4678C91.7091 43.4805 92.4516 44.1435 93.4858 44.5938C93.898 44.7663 94.4224 44.7658 94.8674 44.7434C95.8369 44.721 96.5945 40.4408 96.9483 39.6532C96.9838 39.6459 97.025 39.487 97.1215 39.2415C97.109 40.741 97.3553 42.2223 98.3263 43.2475C99.2901 44.2362 101.027 44.647 101.856 43.457C102.757 42.1446 103.463 39.8242 103.967 37.9046C104.081 38.5186 104.253 39.168 104.493 39.8925C105.18 42.0274 107.168 43.7682 109.086 41.5567C110.317 40.1374 111.861 37.1613 112.887 35.1223C113.012 37.1108 113.176 38.9949 113.353 40.6712C113.526 41.6448 114.66 40.6503 115.549 40.6086C115.615 40.2203 115.673 38.4112 115.601 36.1809C115.583 35.9229 115.648 35.5346 115.729 35.2177C117.365 36.8856 119.499 38.7812 121.098 39.0716C122.662 39.3874 123.614 36.6182 124.237 34.1086C124.366 34.7716 124.585 35.4085 124.898 36.0423C125.697 37.4782 127.673 38.4732 129.523 37.3255C130.348 36.8095 130.94 36.0829 131.444 35.3001C132.292 34.0315 132.996 32.607 133.706 31.219C133.778 31.0819 133.855 30.9438 133.932 30.8062L134.123 34.0101C134.144 34.4536 134.289 34.9472 134.426 35.4033C134.464 35.5826 134.582 35.7812 134.721 35.9016C135.346 36.3649 136.665 36.2299 137.014 35.5935C137.251 35.1302 137.4 34.61 137.594 34.1201L139.135 29.8201C139.526 28.688 139.953 27.5476 140.389 26.4426C140.432 26.4707 140.596 25.5003 140.64 25.5274L140.52 27.0503C140.433 28.3794 140.303 29.6799 140.181 31.0157C140.086 32.3088 140.329 33.6035 140.866 34.8727C141.419 36.2122 142.382 37.2015 143.841 37.7091C144.253 37.8816 144.729 38.0031 145.081 37.5528C144.883 37.3338 144.697 37.337 144.4 37.1764C143.389 36.8335 142.986 34.4515 142.907 33.5697M83.6857 45.1776C84.0076 43.7234 84.3191 42.5705 84.5028 41.858C84.6646 41.2237 84.9797 40.2578 85.1853 39.6517C85.3789 39.1612 85.7906 37.9494 86.0968 37.2848C88.1125 33.1058 88.4188 48.346 83.6857 45.1776ZM85.1216 37.4574L85.1451 37.5642L85.2761 37.6492C84.676 39.2003 84.1412 40.3636 83.5845 41.944C83.4264 41.0423 84.2451 38.7698 85.1216 37.4574ZM81.8657 33.1475C81.6335 33.4602 81.68 35.0588 81.6476 36.6375C81.6231 37.3907 81.5156 38.2752 81.572 38.7119C81.5 38.2037 81.4556 36.7907 81.4207 36.7986C81.405 36.7272 81.3763 36.7709 81.3925 36.8423L81.3847 36.8069C81.442 34.9973 81.5913 33.0943 81.8542 32.9244C81.9263 32.9098 81.7864 33.1266 81.8652 33.1475M80.5702 41.4149C79.6753 43.1031 79.225 44.7085 77.9059 46.1653C78.902 44.4838 79.513 43.0536 80.5691 41.3748L80.5702 41.4149ZM74.4058 38.3153C74.7335 39.4797 73.8408 41.5807 72.6245 42.3682C72.8035 40.9448 73.6555 39.0017 74.4058 38.3153ZM87.9413 35.4257C85.3862 34.1826 83.9356 38.725 83.2792 40.3637C83.0481 39.8148 83.1848 31.6271 83.2766 30.6717C83.4008 29.8586 83.5401 28.2575 83.0225 27.7696C82.5409 27.2755 80.9025 27.6675 80.8425 28.4295C80.5493 32.6148 80.4324 36.8903 80.5519 40.875C79.4426 42.5559 78.4716 44.1617 76.9109 45.8942C76.47 46.626 75.5783 47.0055 74.8734 47.3823C73.834 47.9442 72.7727 48.0614 72.5113 46.5092C72.5086 46.3227 72.4059 46.1955 72.4027 46.0089C72.4017 45.4846 72.1982 44.8919 72.456 44.3504L73.1744 44.3817C75.0435 44.5391 78.5728 38.3502 75.0695 37.0498C73.9707 36.6505 73.0127 36.8955 72.4038 37.8879C72.1231 38.3231 71.859 38.8287 71.7082 39.3478C71.3733 40.3934 71.1171 41.4587 70.8259 42.5324L70.7649 44.1549C70.7962 44.2983 70.8343 44.4765 70.8296 44.6272C70.8677 45.667 71.1479 46.6166 71.6159 47.5637C72.4142 48.9996 74.3902 49.9941 76.2399 48.8458C77.0643 48.3314 77.656 47.6043 78.1606 46.8215C79.0095 45.5528 79.7129 44.1278 80.423 42.7404C80.4809 42.6294 80.5446 42.5173 80.6056 42.4058C80.6735 43.8448 80.7747 45.238 80.914 46.5629C81.0799 47.5001 82.3473 47.3005 83.1796 47.6825L83.5062 46.0772C84.3004 46.8037 85.4185 47.1232 86.4047 46.835C88.82 46.0506 92.1312 37.4761 87.9413 35.4257ZM67.4208 47.0482C67.4051 46.9768 67.4338 46.9325 67.4338 46.9325C67.4583 46.7031 67.5611 46.8314 67.6003 47.0096L67.4208 47.0482ZM67.402 52.6653C67.3378 52.7169 67.2512 52.6616 67.3482 52.4151C67.6655 51.6349 67.3785 51.1736 67.4009 49.8966L67.7114 49.9419C67.6347 51.492 67.8288 52.3859 67.402 52.6653ZM65.4354 54.9998C64.9241 54.8862 64.3308 55.0884 63.7954 54.8674C63.7521 54.8393 63.6447 54.8622 63.6295 54.7913C63.701 54.7757 63.8278 54.673 63.8721 54.7017C64.3355 54.9378 64.9282 54.735 65.4323 54.8132C65.4558 54.9206 65.4714 54.992 65.4354 54.9998ZM65.5492 45.8437C65.5575 45.8802 65.5215 45.8874 65.4928 45.9302C65.4495 45.9031 65.3702 45.8828 65.3702 45.8828L65.3389 45.74C65.5403 45.2849 65.4151 45.5732 65.5549 44.833C65.6123 44.4082 65.7933 44.0325 65.882 43.751L66.0735 43.5978C66.0892 43.6686 66.1482 43.7687 66.156 43.8042C65.7939 44.5563 65.7876 45.0447 65.5492 45.8437ZM64.384 47.5548C64.1503 48.2042 63.6186 48.6937 63.0065 48.1151C62.8604 47.9598 62.6637 47.7398 62.6601 47.5538C62.4566 45.5773 62.3313 44.4812 64.3788 42.6919C64.4858 42.669 65.0488 42.8462 65.2507 42.915C65.2183 43.1089 66.0161 43.1605 65.9608 43.2475L64.384 47.5548ZM68.8087 40.8359L68.6522 39.0742C68.0834 38.5222 65.9243 38.2408 66.0699 40.642L66.0647 41.6531L65.9337 41.5692C64.659 40.8718 62.2708 41.0892 61.8878 42.2572C61.0999 44.6735 60.5641 45.3131 61.485 48.1818C62.0673 50.0024 62.8437 49.6099 64.2499 49.5302C65.2549 49.5 65.6624 46.1939 66.0516 45.3986C66.0516 45.3986 65.9807 45.4142 66.0772 45.1682L66.3407 44.1388C66.5651 46.036 66.9423 48.1245 66.7633 50.409L66.7868 50.5163L66.7607 50.7457C66.7487 50.8603 66.7367 50.976 66.7519 51.0474L66.7393 51.1632C66.5097 53.9068 66.2676 54.5198 65.7824 54.6996L65.4604 54.7694C64.263 54.4301 63.3003 53.9642 62.9152 53.224C62.6407 52.6476 63.3123 52.4646 63.3577 52.155C63.3264 52.0122 62.9053 52.141 62.6856 52.3385L62.5296 52.4844C61.6989 53.4872 62.586 54.6428 64.1017 55.5872C64.2322 55.6716 64.8312 55.8416 65.6525 56L65.7516 55.9411C66.2275 56.0631 66.7127 55.8838 67.1855 55.2948C69.0774 52.7904 69.2058 50.4423 69.1614 43.1537C69.1093 42.5668 69.0216 41.9867 68.9251 41.3717L68.8087 40.8359Z" fill="#B27946"/>
</svg>
